<?xml version="1.0" encoding="utf-8"?>
<!-- Generator: Adobe Illustrator 22.1.0, SVG Export Plug-In . SVG Version: 6.00 Build 0)  -->
<svg version="1.1" id="niconico" xmlns="http://www.w3.org/2000/svg" xmlns:xlink="http://www.w3.org/1999/xlink" x="0px" y="0px"
	 viewBox="0 0 313.5 49.5" style="enable-background:new 0 0 313.5 49.5;" xml:space="preserve">
<style type="text/css">
	.st0{fill-rule:evenodd;clip-rule:evenodd;fill:#231815;}
	.st1{clip-path:url(#SVGID_2_);fill:url(#SVGID_3_);}
</style>
<path class="st0" d="M0,15.4v24.8c0,2.3,1.8,4.1,4.1,4.1H9l2.7,4.3c0.2,0.3,0.5,0.5,0.8,0.5c0.4,0,0.7-0.1,0.9-0.5l2.7-4.3h14.3
	l2.7,4.3c0.2,0.3,0.5,0.5,0.9,0.5c0.4,0,0.7-0.2,0.8-0.5l2.7-4.3h5.4c2.3,0,4.1-1.8,4.1-4.1V15.4c0-2.3-1.9-4.1-4.1-4.1H27.2
	l9.1-9.1L34.1,0L23.6,10.5L12.9,0l-2.3,2.3l9,9H4.2C1.9,11.2,0,13.1,0,15.4L0,15.4z M299.9,37c1.2,0.1,2.5-0.2,3.6-0.8
	c0.9-0.5,1.7-1.1,2.3-2c0.5-0.8,0.9-1.6,1.1-2.5c0.2-1.6,0.3-3.2,0.3-4.9c0-0.9-0.1-1.7-0.3-2.6c-0.2-0.9-0.6-1.8-1.1-2.6
	c-0.6-0.8-1.4-1.5-2.3-1.9c-1.1-0.6-2.3-0.9-3.6-0.8h-11.4c-1.3-0.1-2.5,0.2-3.7,0.8c-0.9,0.5-1.6,1.1-2.2,1.9
	c-0.5,0.8-0.9,1.6-1.1,2.6c-0.2,0.8-0.3,1.7-0.3,2.5c0,1.6,0.1,3.3,0.3,4.9c0.2,0.9,0.5,1.8,1.1,2.6c0.6,0.8,1.4,1.5,2.3,2
	c1.1,0.6,2.4,0.8,3.6,0.8H299.9z M313.1,26.9c0,1.6-0.2,5.5-0.8,7.2c-0.5,1.6-1.4,3.1-2.4,4.5c-1,1.4-2.3,2.5-3.8,3.4
	c-1.5,0.9-3.2,1.3-4.9,1.3h-14.7c-1.7-0.1-3.3-0.6-4.6-1.5c-1.4-0.9-2.6-2-3.5-3.3c-1-1.4-1.8-2.9-2.3-4.5c-0.5-2.3-0.8-4.7-0.8-7.1
	c0-1.7,0.2-3.3,0.8-4.9c0.5-1.6,1.4-3.1,2.4-4.5c1-1.3,2.3-2.5,3.8-3.3c1.5-0.9,3.2-1.3,4.9-1.3h14.8c1.7,0,3.3,0.5,4.7,1.5
	c1.4,0.8,2.6,1.9,3.5,3.2c1,1.4,1.8,2.9,2.3,4.5C312.9,23.6,313.1,25.2,313.1,26.9L313.1,26.9z M235,40.7c0,1.7-1,3.1-2.9,3.1
	s-2.7-1.5-2.7-3.1v-19c-0.2-1.5,1.1-2.8,2.6-2.6c2,0,3,0.9,3,2.6V40.7z M235.9,12.4c0,1.9-1.3,3-4,3c-2.6,0-3.8-1.1-3.8-3
	c0-2,1.2-3,3.8-3C234.6,9.3,235.9,10.3,235.9,12.4z M207.1,11.3c2.2,0,4.3,0.3,6.5,0.8c1.6,0.5,3.1,1.4,4.5,2.4
	c1.3,1,2.5,2.3,3.3,3.7c0.9,1.5,1.3,3.3,1.3,5v17.6c0,0.8-0.3,1.6-0.9,2.2c-0.6,0.6-1.4,0.9-2.3,0.9c-0.8,0-1.5-0.3-2.1-0.9
	c-0.6-0.6-0.9-1.4-0.9-2.3V24.5c0.1-1.3-0.2-2.6-0.8-3.8c-0.5-0.8-1.2-1.5-1.9-2.1c-0.8-0.6-1.6-0.9-2.6-1.1
	c-1.3-0.2-2.7-0.3-4.1-0.3c-1.6,0-3.3,0.1-4.9,0.3c-0.9,0.2-1.8,0.6-2.5,1.1c-0.8,0.6-1.5,1.3-2,2.2c-0.6,1.1-0.8,2.4-0.8,3.7v16.3
	c0,0.9-0.3,1.7-1,2.3c-0.6,0.6-1.4,0.9-2.3,0.8c-0.8,0-1.5-0.3-2.1-0.9c-0.6-0.6-0.9-1.4-0.9-2.3V22.5c0-1.7,0.4-3.3,1.3-4.7
	c0.9-1.4,2-2.6,3.3-3.5c1.4-1,2.9-1.8,4.5-2.3C202.3,11.5,204.7,11.2,207.1,11.3z M241,26.9c0-1.7,0.2-3.4,0.8-4.9
	c0.5-1.6,1.3-3.1,2.4-4.5c1-1.3,2.3-2.5,3.8-3.3c1.5-0.9,3.2-1.4,4.9-1.4h17.6c0.8,0,1.6,0.3,2.2,0.9c0.6,0.6,0.9,1.4,0.9,2.3
	c0,0.8-0.3,1.6-0.9,2.2c-0.6,0.6-1.4,0.9-2.3,0.9h-16c-1.3-0.1-2.5,0.2-3.7,0.8c-0.9,0.5-1.6,1.2-2.2,2c-0.5,0.8-0.9,1.6-1.1,2.6
	c-0.2,0.8-0.2,1.7-0.2,2.6c0,1.6,0,3.2,0.2,4.9c0.2,0.9,0.6,1.8,1.1,2.5c0.6,0.8,1.4,1.5,2.3,2c1.1,0.6,2.4,0.8,3.6,0.8h16.2
	c0.8,0,1.6,0.4,2.2,1c0.6,0.6,0.9,1.4,0.9,2.3c0,0.8-0.3,1.6-0.9,2.2c-0.6,0.6-1.4,0.9-2.3,0.8h-18.1c-1.7,0-3.3-0.4-4.7-1.3
	c-1.4-0.9-2.5-2-3.4-3.3c-1-1.4-1.8-2.9-2.3-4.5C241.3,31.7,241,29.3,241,26.9L241,26.9z M172.7,37.1c1.3,0,2.5-0.2,3.6-0.8
	c0.9-0.5,1.7-1.1,2.3-2c0.5-0.8,0.9-1.6,1.1-2.5c0.1-1.7,0.3-3.2,0.3-4.9c0-0.9-0.1-1.7-0.3-2.6c-0.2-0.9-0.6-1.8-1.1-2.6
	c-0.6-0.8-1.4-1.5-2.3-1.9c-1.1-0.6-2.4-0.8-3.6-0.8h-11.4c-1.2-0.1-2.5,0.2-3.6,0.8c-0.9,0.5-1.7,1.1-2.3,1.9
	c-0.5,0.8-0.9,1.6-1,2.6c-0.2,0.8-0.3,1.7-0.3,2.6c0,1.6,0.1,3.2,0.3,4.9c0.2,0.9,0.6,1.8,1.1,2.5c0.6,0.8,1.3,1.5,2.2,2
	c1.1,0.6,2.4,0.8,3.6,0.8L172.7,37.1L172.7,37.1z M185.9,26.9c0,1.6-0.2,5.6-0.8,7.3c-0.5,1.6-1.4,3.1-2.4,4.5
	c-1,1.3-2.3,2.5-3.8,3.3c-1.5,0.9-3.2,1.3-4.9,1.3h-14.8c-1.7-0.1-3.3-0.6-4.7-1.5c-1.4-0.8-2.6-1.9-3.5-3.2c-1-1.4-1.8-2.9-2.3-4.5
	c-0.5-2.3-0.8-4.7-0.8-7.1c0-1.7,0.2-3.4,0.8-5c0.5-1.6,1.3-3.1,2.4-4.5c1-1.3,2.3-2.4,3.8-3.3c1.5-0.9,3.2-1.3,4.9-1.3h14.9
	c1.7,0,3.3,0.5,4.7,1.4c1.4,0.9,2.6,2,3.5,3.3c1,1.4,1.7,2.9,2.3,4.5c0.5,1.6,0.7,3.2,0.8,4.8H185.9z M107.8,40.7
	c0,1.7-0.9,3.1-2.8,3.1s-2.8-1.4-2.8-3.1V22c0-1.7,0.9-2.6,2.6-2.6c1.9,0,3,0.9,3,2.5L107.8,40.7L107.8,40.7z M108.8,12.4
	c0,1.9-1.4,3-4,3c-2.5,0-3.8-1.1-3.8-3c0-1.9,1.3-3,3.8-3C107.4,9.4,108.8,10.4,108.8,12.4z M79.9,11.3c2.2,0,4.4,0.3,6.4,0.8
	c1.6,0.5,3.1,1.4,4.5,2.4c1.3,1,2.5,2.3,3.3,3.7c0.9,1.5,1.3,3.2,1.3,4.9v17.6c0,0.8-0.3,1.7-0.9,2.3c-0.6,0.6-1.4,0.9-2.2,0.9
	c-0.8,0-1.7-0.3-2.3-0.9c-0.6-0.6-0.9-1.4-0.8-2.3V24.4c0.1-1.3-0.2-2.5-0.8-3.7c-0.5-0.9-1.2-1.7-2-2.3c-0.8-0.5-1.6-0.9-2.6-1
	c-1.3-0.2-2.7-0.3-4.1-0.3c-1.6,0-3.3,0.1-4.9,0.3c-0.9,0.2-1.8,0.6-2.6,1.1c-0.8,0.6-1.5,1.4-1.9,2.3c-0.6,1.1-0.8,2.4-0.8,3.6
	v16.3c0,0.9-0.3,1.7-1,2.3c-0.6,0.6-1.4,0.9-2.2,0.9c-0.8,0-1.6-0.3-2.2-0.9c-0.6-0.6-0.9-1.4-0.9-2.3V22.5c0-1.7,0.4-3.3,1.3-4.7
	c0.9-1.4,2-2.6,3.4-3.5c1.4-1,2.9-1.8,4.5-2.3C75.1,11.5,77.6,11.2,79.9,11.3L79.9,11.3z M113.8,26.9c0-1.7,0.3-3.3,0.8-4.9
	c0.5-1.6,1.4-3.1,2.4-4.5c1-1.4,2.3-2.5,3.8-3.4c1.5-0.9,3.2-1.3,4.9-1.3h17.6c0.8,0,1.6,0.3,2.2,0.9c0.6,0.6,0.9,1.4,0.9,2.3
	c0,0.8-0.3,1.6-0.9,2.2c-0.6,0.6-1.4,0.9-2.3,0.9H127c-1.2-0.1-2.5,0.2-3.6,0.8c-0.9,0.5-1.7,1.1-2.3,1.9c-0.5,0.8-0.9,1.6-1.1,2.6
	c-0.2,0.8-0.2,1.7-0.2,2.6c0,1.6,0.1,3.3,0.2,4.9c0.2,0.9,0.6,1.8,1.1,2.5c0.6,0.8,1.4,1.5,2.3,2c1.1,0.6,2.3,0.9,3.6,0.8h16.3
	c0.8,0,1.7,0.3,2.3,0.9c0.6,0.6,0.9,1.4,0.8,2.3c0,0.8-0.3,1.6-0.9,2.2c-0.6,0.6-1.4,0.9-2.3,0.9H125c-1.7,0-3.3-0.4-4.7-1.3
	c-1.4-0.9-2.5-2-3.4-3.4c-1-1.4-1.8-2.9-2.3-4.5C114.1,31.7,113.8,29.3,113.8,26.9L113.8,26.9z"/>
<g>
	<defs>
		<path id="SVGID_1_" d="M1.6,16c0-1.9,1.8-3,4.5-3h9.2c3.2,0,5.2,1.6,5.2,2.9c0,1.9-3.1,2.7-5.4,4.5c-1.3,0.8-7.3,6.9-8.3,15
			c-0.1,1.7-5.3-0.6-5.3-5.2V16L1.6,16z"/>
	</defs>
	<clipPath id="SVGID_2_">
		<use xlink:href="#SVGID_1_"  style="overflow:visible;"/>
	</clipPath>
	
		<linearGradient id="SVGID_3_" gradientUnits="userSpaceOnUse" x1="11.572" y1="1.1754" x2="18.0232" y2="31.0063" gradientTransform="matrix(0.75 0 0 -0.75 0 37.125)">
		<stop  offset="0" style="stop-color:#000000"/>
		<stop  offset="0.29" style="stop-color:#737373"/>
		<stop  offset="0.78" style="stop-color:#656565"/>
		<stop  offset="1" style="stop-color:#393939"/>
	</linearGradient>
	<rect x="1.6" y="13" class="st1" width="18.9" height="24.1"/>
</g>
</svg>
